# xmcd
#
# Track frame offsets: 
#        150
#        26533
#        54338
#        77825
#        100861
#        120103
#        140528
#        167470
#        193387
#        220413
#
# Disc length: 3351 seconds
#
# Revision: 0
# Processed by: cddbd v1.5.2PL0 Copyright (c) Steve Scherf et al.
# Submitted via: ExactAudioCopy v1.0b3
#
DISCID=810d150a
DTITLE=Manh Quynh - Song Que
DYEAR=1997
DGENRE=
TTITLE0=Song que
TTITLE1=Hoa vong vang trang
TTITLE2=Nhung dem lanh gia
TTITLE3=Ru con thuyen mong
TTITLE4=Mien Trung thuong nho
TTITLE5=Mau chay ve tim
TTITLE6=Tram nam ben cu
TTITLE7=Tren dong song nho
TTITLE8=Phan ngheo 2
TTITLE9=Song que 2
EXTD=
EXTT0=
EXTT1=
EXTT2=
EXTT3=
EXTT4=
EXTT5=
EXTT6=
EXTT7=
EXTT8=
EXTT9=
PLAYORDER=
